<?xml version="1.0" standalone="no"?>
<!DOCTYPE svg PUBLIC "-//W3C//DTD SVG 20010904//EN"
 "http://www.w3.org/TR/2001/REC-SVG-20010904/DTD/svg10.dtd">
<svg version="1.0" xmlns="http://www.w3.org/2000/svg"
 width="300.000000pt" height="93.000000pt" viewBox="0 0 300.000000 93.000000"
 preserveAspectRatio="xMidYMid meet">
<metadata>
Created by potrace 1.10, written by Peter Selinger 2001-2011
</metadata>
<g transform="translate(0.000000,93.000000) scale(0.050000,-0.050000)"
fill="#000000" stroke="none">
<path d="M2224 1749 c-25 -18 -61 -26 -84 -19 -47 15 -86 -4 -68 -33 7 -12 16
-154 20 -317 10 -401 17 -417 263 -583 80 -54 175 -125 212 -157 l68 -59 39
119 39 119 34 -72 c112 -233 207 -287 197 -110 -9 152 30 341 56 273 21 -53
49 16 83 202 22 116 28 128 51 96 36 -50 35 52 -2 156 -25 71 -25 74 11 55 47
-26 48 -4 2 48 -25 28 -26 35 -5 23 25 -15 26 -13 4 14 -36 45 -112 71 -283
96 -93 13 -216 52 -325 101 -193 87 -245 95 -312 48z m243 -602 c103 -102 41
-267 -100 -267 -53 0 -72 12 -97 60 l-31 59 50 -22 c40 -18 59 -16 100 11 56
36 73 5 26 -48 -21 -24 -20 -24 10 -2 79 60 15 202 -92 202 -32 0 -34 -5 -12
-31 36 -43 -7 -87 -55 -57 -51 32 -53 61 -7 107 57 57 144 52 208 -12z"/>
<path d="M1609 1643 c-33 -21 -88 -71 -121 -112 -58 -73 -62 -75 -137 -54 -97
27 -110 20 -281 -160 -77 -81 -211 -205 -298 -277 -87 -71 -172 -152 -189
-180 l-32 -50 45 38 44 38 0 -123 c0 -81 8 -123 23 -123 13 0 68 -47 121 -105
54 -58 88 -85 76 -60 -28 59 -24 58 124 -28 173 -100 195 -122 209 -211 l12
-78 60 56 c68 64 134 193 135 265 0 45 5 42 70 -34 39 -45 104 -103 145 -128
41 -25 84 -57 95 -72 14 -18 18 3 14 70 -6 82 7 123 95 293 88 172 129 287 88
245 -8 -7 -53 61 -101 152 -48 91 -118 194 -157 230 -97 92 -89 227 25 380 55
74 30 85 -65 28z m138 -704 c65 -51 67 -69 8 -74 -35 -3 -38 1 -15 16 27 17
27 21 0 39 -46 30 -134 26 -104 -4 13 -13 24 -36 24 -50 0 -33 -73 -34 -87 -1
-5 14 -11 -3 -11 -38 -1 -37 12 -73 33 -89 30 -22 31 -22 10 2 -38 43 -30 63
15 35 34 -21 51 -19 100 9 42 24 60 27 61 10 1 -13 10 -6 21 16 15 32 16 28 8
-20 -31 -167 -239 -196 -290 -40 -53 159 102 287 227 189z"/>
<path d="M80 1470 l0 -110 87 0 c119 0 120 21 -10 -401 -64 -210 -117 -412
-117 -450 l0 -69 280 0 280 0 0 110 0 110 -110 0 c-60 0 -110 6 -110 14 0 7
50 164 110 348 80 244 110 364 110 446 l0 112 -260 0 -260 0 0 -110z"/>
<path d="M3560 1460 c0 -66 -3 -120 -8 -120 -4 0 -33 13 -65 30 -111 58 -254
14 -282 -85 -8 -30 -15 -211 -15 -402 l0 -346 56 -49 c66 -56 167 -63 255 -17
53 27 59 27 59 0 0 -25 28 -31 140 -31 l140 0 0 570 0 570 -140 0 -140 0 0
-120z m-10 -541 c0 -278 -3 -309 -35 -315 -36 -7 -57 588 -21 623 44 45 56
-19 56 -308z"/>
<path d="M5440 1430 c0 -49 -9 -70 -30 -70 -40 0 -41 -132 -2 -154 22 -12 30
-87 35 -340 8 -396 11 -401 233 -420 l144 -12 0 83 c0 70 -6 83 -40 83 -38 0
-40 13 -40 300 0 253 5 300 30 300 22 0 30 22 30 80 0 58 -8 80 -30 80 -21 0
-30 21 -30 70 l0 70 -150 0 -150 0 0 -70z"/>
<path d="M4133 1381 c-154 -50 -193 -145 -193 -471 0 -386 44 -456 297 -467
174 -7 266 35 322 148 48 96 43 579 -7 661 -70 116 -269 177 -419 129z m167
-474 c0 -284 -3 -309 -35 -303 -43 8 -64 559 -23 608 47 57 58 -3 58 -305z"/>
<path d="M5080 1387 c-16 -7 -46 -26 -65 -43 -32 -27 -35 -27 -35 3 0 28 -24
33 -150 33 l-150 0 0 -530 0 -530 140 0 140 0 0 101 0 102 53 -42 c117 -92
291 -35 318 105 31 167 1 711 -42 754 -43 43 -156 68 -209 47z m-20 -458 c0
-278 -8 -329 -50 -329 -53 0 -77 512 -29 603 52 97 79 5 79 -274z"/>
<path d="M2180 637 c-229 -42 -260 -257 -37 -257 132 0 121 -126 -21 -235
-111 -85 -88 -83 49 5 90 57 130 70 224 73 l115 3 -124 19 c-169 28 -191 80
-92 223 102 149 66 201 -114 169z"/>
</g>
</svg>
